<?xml version="1.0" encoding="iso-8859-1"?>
<!-- Generator: Adobe Illustrator 16.0.0, SVG Export Plug-In . SVG Version: 6.00 Build 0)  -->
<!DOCTYPE svg PUBLIC "-//W3C//DTD SVG 1.1//EN" "http://www.w3.org/Graphics/SVG/1.1/DTD/svg11.dtd">
<svg version="1.1" id="Capa_1" xmlns="http://www.w3.org/2000/svg" xmlns:xlink="http://www.w3.org/1999/xlink" x="0px" y="0px"
	 width="561.675px" height="561.674px" viewBox="0 0 561.675 561.674" style="enable-background:new 0 0 561.675 561.674;"
	 xml:space="preserve">
<g>
	<g>
		<path d="M0.001,112.897c0.016,4.896-0.082,9.812,0.331,14.68c0.404,4.773,1.583,9.478,2.06,14.248
			c0.596,5.981,0.804,11.999,1.224,17.997c0.253,3.627,0.53,7.242,1.917,10.698c0.641,1.6,1.134,3.346,1.232,5.055
			c0.343,5.908,0.4,11.828,0.738,17.736c0.126,2.199,0.339,4.537,1.208,6.5c0.877,1.979,1.562,3.921,1.946,6.034
			c0.469,2.57,1.044,5.121,1.652,7.662c0.396,1.645,1.077,3.231,1.371,4.888c0.616,3.484,1,7.009,1.599,10.498
			c0.372,2.142,1.143,4.223,1.424,6.373c0.514,3.893,0.355,7.928,1.305,11.693c1.024,4.076,2.954,7.932,4.578,11.844
			c0.641,1.546,1.55,2.979,2.305,4.48c0.367,0.734,0.51,1.632,1.016,2.24c2.546,3.06,3.439,6.944,4.904,10.461
			c1.326,3.179,3.244,5.814,5.263,8.384c2.007,2.562,4.565,4.7,6.92,6.981c0.44,0.424,1.061,0.665,1.595,0.991
			c0.575,0.354,1.273,0.6,1.706,1.085c1.33,1.474,3.092,1.877,4.908,2.302c1.876,0.444,3.725,1.032,5.569,1.615
			c1.791,0.567,3.533,1.285,5.341,1.8c1.673,0.477,3.415,0.718,5.1,1.158c2.664,0.698,5.316,1.448,7.952,2.244
			c0.914,0.277,1.799,0.697,2.636,1.167c0.318,0.18,0.73,0.783,0.641,1.004c-0.75,1.84-0.881,3.908-2.726,5.32
			c-1.864,1.428-3.753,2.859-5.553,4.341c-4.214,3.472-8.115,7.328-12.068,11.105c-3.55,3.391-6.222,7.553-7.895,12.032
			c-1.522,4.067-2.468,8.593-2.497,12.926c-0.061,8.567-1.204,17.025-1.705,25.54c-0.559,9.458-0.804,18.895,1.342,28.246
			c1.542,6.716,1.383,13.46-0.09,20.208c-0.657,3.023-1.151,6.12-1.285,9.205c-0.147,3.374,0.51,6.577,1.971,9.824
			c1.477,3.28,3.337,6.214,5.573,8.87c1.599,1.901,2.839,3.872,3.745,6.128c0.106,0.266,0.286,0.51,0.465,0.738
			c2.721,3.493,3.088,7.765,3.746,11.886c0.228,1.424-0.612,2.994-0.788,4.517c-0.539,4.721-3.656,8.368-5.178,12.677
			c-0.078,0.22-0.265,0.403-0.408,0.6c-1.946,2.636-3.848,5.308-5.855,7.895c-1.444,1.86-2.962,3.672-4.57,5.39
			c-1.607,1.718-3.37,3.288-5.051,4.937c-0.273,0.27-0.437,0.641-0.689,0.935c-0.535,0.62-1.081,1.232-1.648,1.824
			c-1.697,1.767-3.427,3.504-5.108,5.287c-1.722,1.824-3.391,3.696-5.1,5.528c-1.775,1.901-3.611,3.746-5.353,5.68
			c-3.37,3.737-6.626,7.58-10.057,11.261c-2.15,2.306-2.362,5.973-0.078,7.385c0.816,0.502,1.91,0.697,2.897,0.755
			c6.875,0.392,12.521-3.166,18.429-5.859c1.265-0.575,2.436-1.354,3.664-2.02c2.799-1.514,5.605-3.007,8.4-4.524
			c0.249-0.135,0.416-0.412,0.653-0.575c0.902-0.633,1.783-1.31,2.738-1.856c2.717-1.559,5.463-3.064,8.197-4.59
			c0.041-0.024,0.078-0.058,0.122-0.078c1.946-0.938,3.889-1.876,5.834-2.814c0.779-0.38,1.559-0.759,2.342-1.135
			c1.171-0.559,2.309-1.199,3.521-1.656c1.856-0.698,3.753-1.273,5.643-1.885c1.832-0.596,3.644-1.579,5.504-1.689
			c5.312-0.314,10.649-0.392,15.973-0.298c1.926,0.032,4.084,0.404,5.691,1.363c1.84,1.097,3.672,1.864,5.708,2.357
			c1.396,0.339,2.766,0.845,4.08,1.429c1.269,0.566,2.464,1.31,3.672,2.011c0.873,0.506,1.722,1.053,2.562,1.612
			c2.525,1.673,5.12,3.247,7.246,5.45c0.6,0.62,1.236,1.204,1.828,1.836c0.428,0.457,0.795,0.968,1.204,1.444
			c0.873,1.021,1.808,1.991,2.624,3.052c1.763,2.289,3.705,4.085,6.826,4.456c3.995,0.469,7.854-0.123,11.673-1.012
			c3.003-0.698,5.863-2.163,8.886-2.616c4.007-0.6,6.965-2.603,9.368-5.581c1.812-2.244,3.235-4.798,5.06-7.025
			c1.452-1.775,2.974-3.835,4.94-4.766c3.591-1.697,7.206-3.591,11.355-3.893c1.501-0.11,3.182-0.489,4.39-1.317
			c2.896-1.983,6.377-3.04,8.829-5.736c1.616-1.779,3.794-3.134,5.087-5.097c1.767-2.676,4.227-4.989,4.986-8.29
			c0.074-0.314,0.367-0.567,0.506-0.877c0.759-1.702,1.579-3.387,2.24-5.129c1.457-3.839,2.815-7.711,4.255-11.555
			c0.18-0.481,0.636-0.856,0.897-1.317c0.514-0.918,1.106-1.82,1.436-2.804c0.8-2.382,1.477-4.81,2.183-7.226
			c0.293-1.012,0.596-2.027,0.771-3.063c0.657-3.864,0.91-7.81,2.648-11.429c0.604-1.256,1.11-2.591,1.408-3.945
			c0.583-2.647,0.942-5.349,1.477-8.009c0.75-3.745,1.526-7.486,2.399-11.208c0.392-1.664,0.979-3.296,1.599-4.896
			c0.481-1.244,1.306-2.362,1.714-3.623c1.424-4.415,2.717-8.866,4.092-13.297c0.184-0.596,0.416-1.253,0.828-1.686
			c1.665-1.742,2.252-3.908,2.701-6.169c0.167-0.853,0.518-1.668,0.734-2.513c0.681-2.66,1.305-5.337,2.02-7.988
			c0.22-0.82,0.494-1.718,1.02-2.347c0.955-1.143,2.113-2.117,3.203-3.149c0.763-0.727,1.604-1.016,2.648-0.53
			c1.069,0.497,1.901,1.093,2.024,2.407c0.681,7.144,1.375,14.288,2.117,21.424c0.123,1.191,0.212,2.546,0.82,3.505
			c1.701,2.688,1.991,5.72,2.66,8.687c0.265,1.183,0.849,2.387,1.591,3.345c1.799,2.33,3.623,4.685,5.732,6.716
			c2.105,2.028,4.549,3.705,6.903,5.464c0.514,0.383,1.261,0.62,1.91,0.636c3.244,0.069,6.492,0.127,9.731-0.004
			c0.946-0.041,1.967-0.571,2.791-1.118c4.438-2.958,8.074-6.72,11.224-11.036c1.31-1.799,2.15-3.586,2.436-5.777
			c0.232-1.759,0.764-3.488,1.281-5.193c0.526-1.734,1.538-3.383,1.746-5.142c0.837-7.127,1.469-14.279,2.113-21.428
			c0.123-1.343,0.923-1.958,1.955-2.46c0.971-0.47,1.901-0.359,2.692,0.396c1.154,1.102,2.375,2.154,3.387,3.374
			c0.518,0.624,0.755,1.542,0.935,2.371c0.444,2.031,0.677,4.116,1.199,6.124c0.559,2.146,1.351,4.234,2.052,6.344
			c0.229,0.686,0.347,1.498,0.788,2.012c2.011,2.346,2.692,5.214,3.439,8.074c0.184,0.697,0.555,1.347,0.787,2.032
			c0.592,1.729,1.171,3.464,1.726,5.206c0.498,1.562,0.56,3.476,1.526,4.635c1.604,1.917,1.941,4.035,2.284,6.291
			c0.425,2.774,0.898,5.545,1.469,8.295c0.474,2.269,1.241,4.479,1.669,6.756c0.555,2.954,0.853,5.957,2.521,8.593
			c0.38,0.596,0.584,1.347,0.706,2.053c0.51,2.962,0.935,5.937,1.437,8.898c0.143,0.849,0.424,1.681,0.697,2.501
			c0.559,1.697,1.248,3.357,1.714,5.079c0.53,1.971,0.942,3.925,2.423,5.517c0.625,0.673,0.894,1.697,1.249,2.595
			c0.502,1.261,0.942,2.546,1.391,3.827c0.735,2.089,1.461,4.186,2.184,6.279c0.392,1.143,0.51,2.492,1.207,3.395
			c2.179,2.795,2.856,6.454,5.492,8.992c1.897,1.823,3.28,4.206,5.275,5.888c2.256,1.905,4.402,4.12,7.421,4.944
			c0.355,0.099,0.633,0.457,0.983,0.612c1.481,0.661,2.922,1.579,4.472,1.868c3.261,0.604,6.483,1.204,9.409,2.868
			c0.416,0.237,0.894,0.376,1.358,0.511c2.93,0.832,4.643,3.182,6.553,5.271c0.645,0.705,1.195,1.505,1.762,2.28
			c0.511,0.697,1.045,1.383,1.47,2.13c2.423,4.264,5.573,7.511,10.738,8.271c1.856,0.273,3.77,0.669,5.471,1.428
			c4.321,1.918,8.862,2.456,13.489,2.529c3.056,0.049,5.834-0.755,7.87-3.321c1.432-1.807,2.958-3.545,4.528-5.23
			c1.665-1.791,3.432-3.488,5.161-5.218c0.164-0.168,0.417-0.241,0.629-0.363c2.88-1.656,5.761-3.317,8.642-4.978
			c0.126-0.073,0.253-0.151,0.354-0.253c1.351-1.326,3.072-1.791,4.859-2.113c2.122-0.38,4.146-0.943,5.806-2.469
			c0.461-0.425,1.2-0.637,1.845-0.751c6.801-1.236,13.627-1.012,20.437-0.139c1.375,0.176,2.717,0.706,4.039,1.163
			c1.869,0.645,3.729,1.322,5.557,2.081c3.742,1.55,7.454,3.166,11.18,4.761c0.045,0.021,0.081,0.054,0.122,0.078
			c2.926,1.758,5.847,3.524,8.78,5.275c0.416,0.249,0.886,0.403,1.298,0.656c0.693,0.429,1.354,0.91,2.031,1.359
			c0.922,0.607,1.812,1.272,2.778,1.791c3.016,1.615,6.063,3.178,9.095,4.761c0.086,0.045,0.159,0.114,0.245,0.159
			c1.619,0.828,3.235,1.665,4.867,2.473c0.693,0.343,1.521,0.485,2.113,0.942c2.375,1.836,5.219,2.338,8.025,2.774
			c1.934,0.302,4.002,0.408,5.896,0.033c1.126-0.225,2.701-1.429,2.885-2.416c0.334-1.774-0.058-3.721-1.534-5.234
			c-1.791-1.828-3.443-3.795-5.149-5.704c-3.157-3.537-6.291-7.099-9.478-10.616c-2.068-2.28-4.206-4.504-6.324-6.74
			c-1.456-1.538-2.929-3.06-4.402-4.582c-1.774-1.827-3.562-3.651-5.336-5.475c-1.041-1.069-2.126-2.105-3.109-3.231
			c-1.738-1.995-3.505-3.982-5.096-6.096c-1.938-2.574-3.717-5.275-5.537-7.936c-0.212-0.311-0.248-0.73-0.396-1.09
			c-0.31-0.763-0.493-1.636-0.991-2.252c-1.685-2.068-2.391-4.508-2.979-7.029c-0.273-1.18-0.84-2.306-0.987-3.493
			c-0.184-1.469-0.44-3.084-0.024-4.442c1.163-3.803,1.399-8.001,4.312-11.135c0.127-0.135,0.204-0.339,0.245-0.526
			c0.686-3.052,3.19-4.925,4.92-7.25c1.229-1.652,2.396-3.235,3.097-5.165c0.266-0.727,0.649-1.412,0.906-2.143
			c0.604-1.713,1.379-3.406,1.701-5.177c0.783-4.342-0.126-8.609-1.053-12.828c-1.403-6.385-1.95-12.876-0.444-19.208
			c2.722-11.445,2.179-22.926,1.322-34.46c-0.384-5.125-1.024-10.232-1.221-15.361c-0.154-4.076-0.375-8.099-1.048-12.146
			c-0.914-5.504-3.023-10.392-6.614-14.557c-3.443-3.995-7.091-7.826-10.832-11.539c-1.697-1.685-3.868-2.88-5.781-4.354
			c-2.505-1.93-5.223-3.639-6.165-7.013c-0.588-2.102-0.648-2.281,1.31-3.203c0.437-0.204,0.901-0.355,1.367-0.489
			c2.688-0.784,5.349-1.678,8.074-2.302c4.435-1.02,8.805-2.093,13.063-3.835c2.991-1.224,6.243-1.538,9.013-3.668
			c2.469-1.894,4.725-3.929,6.81-6.189c1.661-1.804,3.285-3.644,4.863-5.516c0.58-0.689,1.082-1.477,1.469-2.293
			c0.869-1.828,1.698-3.68,2.452-5.561c1.311-3.272,2.812-6.434,4.472-9.551c1.942-3.647,3.439-7.527,5.133-11.31
			c0.062-0.131,0.163-0.245,0.213-0.379c0.632-1.709,1.562-3.375,1.827-5.141c0.547-3.639,0.56-7.356,1.114-10.996
			c0.693-4.545,1.713-9.041,2.599-13.558c0.551-2.799,1.081-5.606,1.689-8.393c0.596-2.738,1.252-5.467,1.934-8.185
			c0.433-1.73,0.963-3.431,1.452-5.149c0.551-1.934,1.461-3.843,1.596-5.802c0.322-4.79,0.298-9.6,0.396-14.402
			c0.082-3.905,0.506-7.736,2.077-11.379c0.416-0.971,0.706-2.036,0.82-3.084c0.362-3.374,0.66-6.756,0.905-10.139
			c0.318-4.402,0.396-8.825,0.882-13.207c0.485-4.382,1.692-8.703,1.954-13.084c0.416-6.912,0.428-13.855,0.396-20.783
			c-0.077-16.104-0.29-32.208-0.444-48.312c0.163-0.012,0.326-0.028,0.489-0.041c-0.42-3.357-0.453-6.826-1.354-10.049
			c-1.457-5.202-2.179-10.453-2.199-15.798c-0.017-4.243-1.534-8.001-3.57-11.514c-2.011-3.464-5.471-5.23-9.253-6.25
			c-3.615-0.975-7.344-0.91-10.992-0.453c-5.336,0.669-10.636,1.645-15.932,2.591c-1.265,0.229-2.452,0.874-3.672,1.334
			c-1.489,0.563-2.967,1.15-4.46,1.697c-1.448,0.53-2.938,0.963-4.361,1.542c-1.6,0.653-3.158,1.408-4.717,2.154
			c-3.084,1.473-6.156,2.966-9.232,4.459c-0.127,0.061-0.217,0.196-0.335,0.277c-1.085,0.718-2.171,1.436-3.264,2.142
			c-2.42,1.575-4.848,3.142-7.263,4.716c-0.2,0.131-0.335,0.355-0.53,0.498c-0.734,0.539-1.461,1.085-2.22,1.579
			c-2.464,1.608-5.034,3.068-7.385,4.823c-2.007,1.493-3.749,3.337-5.639,4.994c-4.806,4.214-9.633,8.413-14.443,12.624
			c-1.452,1.273-2.896,2.554-4.312,3.868c-2.15,1.999-4.275,4.023-6.405,6.046c-1.604,1.526-3.219,3.04-4.79,4.603
			c-1.779,1.767-3.496,3.59-5.263,5.365c-1.559,1.562-3.203,3.04-4.709,4.647c-1.64,1.754-3.138,3.644-4.753,5.426
			c-2.261,2.501-4.614,4.917-6.851,7.442c-3.754,4.243-7.434,8.552-11.171,12.815c-1.334,1.522-2.733,2.986-4.108,4.472
			c-1.632,1.763-3.321,3.48-4.896,5.292c-1.896,2.183-3.725,4.423-5.532,6.679c-1.787,2.224-3.517,4.492-5.268,6.744
			c-1.647,2.122-3.305,4.243-4.94,6.373c-1.938,2.53-3.872,5.063-5.785,7.609c-1.53,2.04-3.023,4.108-4.541,6.161
			c-1.983,2.672-4.007,5.316-5.957,8.013c-1.521,2.101-2.926,4.292-4.451,6.389c-1.812,2.493-3.722,4.908-5.537,7.397
			c-0.624,0.853-1.048,1.856-1.652,2.726c-1.815,2.607-3.753,5.128-5.504,7.776c-1.778,2.689-3.366,5.5-5.088,8.225
			c-0.641,1.016-1.448,1.922-2.149,2.897c-0.702,0.975-1.363,1.975-2.04,2.966c-0.404,0.596-0.841,1.171-1.204,1.791
			c-1.742,3.003-3.46,6.018-5.193,9.025c-0.074,0.126-0.188,0.225-0.258,0.351c-0.714,1.306-1.424,2.619-2.138,3.925
			c-0.437,0.804-0.873,1.612-1.317,2.411c-0.702,1.261-1.437,2.505-2.109,3.782c-1.526,2.889-3.023,5.79-4.545,8.678
			c-0.135,0.253-0.396,0.433-0.543,0.681c-0.596,0.979-1.195,1.958-1.738,2.971c-0.616,1.138-1.146,2.325-1.767,3.464
			c-0.551,1.012-1.22,1.958-1.746,2.982c-1.645,3.215-3.235,6.458-4.867,9.682c-0.172,0.339-0.494,0.6-0.698,0.93
			c-0.408,0.657-0.824,1.318-1.167,2.007c-1.407,2.832-2.737,5.708-4.206,8.511c-0.927,1.767-2.203,1.779-3.231,0.077
			c-0.257-0.424-0.191-1.097-0.135-1.64c0.294-2.839,0.877-5.671,0.882-8.507c0.004-2.219-0.278-4.557-2.118-6.299
			c-2.374-2.248-3.88-4.908-2.726-8.266c0.571-1.656,1.367-3.346,2.477-4.676c1.718-2.056,3.791-3.811,5.708-5.7
			c1.787-1.762,3.574-3.525,5.341-5.3c1.465-1.473,2.971-2.917,4.341-4.476c1.588-1.804,2.922-3.835,4.599-5.537
			c1.224-1.24,2.644-2.252,3.174-4.023c0.062-0.204,0.303-0.412,0.511-0.498c1.321-0.559,1.917-1.685,2.484-2.901
			c0.298-0.636,0.856-1.154,1.313-1.713c0.669-0.824,1.371-1.62,2.024-2.456c0.918-1.171,1.803-2.362,2.7-3.55
			c1.298-1.718,2.636-3.407,3.856-5.177c0.485-0.702,0.673-1.608,1.04-2.395c0.306-0.653,0.693-1.273,1.028-1.914
			c0.705-1.359,1.46-2.701,2.076-4.101c0.506-1.146,0.592-2.554,1.31-3.521c1.335-1.795,1.832-3.811,2.338-5.892
			c0.343-1.403,0.865-2.766,1.367-4.125c0.583-1.575,1.31-3.097,1.828-4.688c0.616-1.885,1.032-3.832,1.611-5.729
			c0.673-2.207,1.485-4.378,2.13-6.589c0.53-1.812,0.881-3.672,1.351-5.504c0.571-2.24,1.383-4.443,1.701-6.715
			c0.188-1.359-0.314-2.84-0.637-4.235c-0.081-0.347-0.632-0.816-0.991-0.836c-2.008-0.11-4.455,1.967-4.957,4.04
			c-0.461,1.885-1.041,3.741-1.453,5.634c-0.726,3.305-1.362,6.63-2.04,9.947c-0.583,2.839-1.126,5.691-1.767,8.515
			c-0.546,2.403-1.179,4.786-1.836,7.161c-0.383,1.391-0.815,2.778-1.346,4.121c-0.526,1.338-1.33,2.575-1.787,3.929
			c-0.645,1.921-1.306,3.713-2.506,5.463c-1.603,2.342-2.357,5.227-4.288,7.487c-1.265,1.477-2.187,3.264-3.157,4.974
			c-1.036,1.824-2.51,3.403-3.525,5.112c-1.367,2.301-3.325,3.974-4.929,5.957c-2.909,3.607-6.356,6.777-9.601,10.115
			c-4.051,4.169-8.074,8.372-12.215,12.452c-1.767,1.738-3.771,3.133-6.561,2.835c-2.403-0.261-4.839-0.29-7.263-0.294
			c-2.036-0.004-4.072,0.277-6.1,0.22c-1.004-0.028-2.179-0.293-2.95-0.881c-2.073-1.571-4.097-3.248-5.92-5.1
			c-5.132-5.21-10.175-10.518-15.222-15.814c-2.297-2.407-4.533-4.872-6.773-7.336c-0.347-0.384-0.542-0.902-0.828-1.351
			c-0.335-0.526-0.575-1.232-1.061-1.53c-1.306-0.795-1.914-1.991-2.403-3.333c-0.147-0.4-0.441-0.747-0.686-1.106
			c-1.783-2.611-3.611-5.194-5.325-7.85c-0.514-0.8-0.665-1.82-1.081-2.693c-0.412-0.869-0.958-1.669-1.42-2.513
			c-0.501-0.918-1.11-1.808-1.444-2.783c-1.787-5.186-4.304-10.135-5.014-15.663c-0.016-0.139-0.126-0.265-0.163-0.404
			c-0.645-2.424-1.399-4.827-1.897-7.279c-0.412-2.036-0.359-4.17-0.804-6.202c-0.755-3.448-1.876-6.822-2.583-10.277
			c-0.53-2.607-1.583-4.464-4.292-5.276c-1.518-0.457-1.792-0.51-2.313,1.045c-1.098,3.284-0.151,6.414,0.755,9.543
			c0.661,2.272,1.313,4.549,1.954,6.826c0.485,1.722,0.906,3.464,1.444,5.169c0.637,2.02,1.387,3.999,2.061,6.006
			c0.567,1.689,1.053,3.403,1.661,5.08c0.326,0.897,0.955,1.697,1.228,2.607c0.856,2.856,1.583,5.671,3.003,8.413
			c1.481,2.868,2.354,6.087,4.169,8.862c0.836,1.277,1.555,2.636,2.371,3.929c0.457,0.722,1.02,1.371,1.51,2.072
			c0.445,0.633,0.828,1.31,1.293,1.922c0.893,1.191,1.807,2.362,2.746,3.517c0.694,0.853,1.501,1.624,2.154,2.505
			c1.306,1.754,2.399,3.603,4.056,5.153c1.889,1.767,3.166,4.169,4.863,6.165c1.497,1.754,3.207,3.325,4.822,4.974
			c4.292,4.378,8.625,8.715,12.84,13.166c1.102,1.163,2.077,2.583,2.672,4.06c1.249,3.097,0.71,6.153-1.697,8.438
			c-2.15,2.04-2.893,4.533-2.868,7.185c0.024,2.88,0.587,5.769,1.032,8.633c0.212,1.354-0.555,2.044-1.489,2.542
			c-0.991,0.526-1.509-0.384-1.921-1.065c-1.037-1.726-2.016-3.489-2.979-5.259c-0.322-0.592-0.49-1.265-0.788-1.869
			c-1.604-3.235-3.227-6.463-4.847-9.694c-0.041-0.086-0.13-0.143-0.179-0.229c-0.686-1.216-1.396-2.419-2.04-3.656
			c-1.555-2.982-3.072-5.99-4.623-8.976c-0.151-0.294-0.461-0.506-0.637-0.792c-0.555-0.902-1.118-1.803-1.607-2.742
			c-1.644-3.158-3.256-6.332-4.884-9.499c-0.085-0.167-0.265-0.286-0.363-0.453c-0.636-1.073-1.289-2.138-1.885-3.231
			c-1.498-2.75-2.97-5.516-4.451-8.274c-0.045-0.085-0.126-0.146-0.18-0.229c-1.84-2.697-3.733-5.357-5.496-8.103
			c-1.665-2.591-3.187-5.275-4.778-7.915c-0.123-0.204-0.322-0.363-0.461-0.563c-1.905-2.778-3.794-5.565-5.704-8.339
			c-1.554-2.256-3.113-4.517-4.708-6.744c-1.853-2.587-3.774-5.121-5.623-7.711c-1.672-2.346-3.235-4.773-4.937-7.099
			c-1.734-2.375-3.595-4.655-5.365-7.001c-2.113-2.803-4.198-5.626-6.287-8.445c-0.433-0.583-0.845-1.183-1.273-1.767
			c-1.485-2.016-2.938-4.056-4.476-6.03c-1.779-2.277-3.66-4.472-5.459-6.732c-1.864-2.346-3.619-4.778-5.541-7.075
			c-1.636-1.958-3.468-3.75-5.161-5.663c-1.628-1.836-3.154-3.762-4.782-5.594c-1.669-1.873-3.46-3.639-5.104-5.532
			c-3.081-3.546-6.067-7.173-9.144-10.723c-1.293-1.493-2.709-2.876-4.08-4.296c-1.701-1.767-3.419-3.521-5.12-5.288
			c-1.897-1.97-3.766-3.961-5.675-5.92c-1.583-1.624-3.195-3.219-4.802-4.814c-1.742-1.73-3.464-3.476-5.251-5.161
			c-1.856-1.754-3.786-3.431-5.667-5.161c-1.812-1.669-3.562-3.398-5.402-5.035c-3.66-3.252-7.353-6.463-11.041-9.674
			c-3.672-3.19-6.932-6.883-11.306-9.221c-0.379-0.2-0.677-0.551-1.032-0.8c-1.028-0.722-2.057-1.436-3.101-2.134
			c-2.236-1.498-4.48-2.979-6.72-4.472c-1.358-0.906-2.688-1.856-4.08-2.713c-2.66-1.64-5.169-3.565-8.25-4.431
			c-0.135-0.037-0.245-0.159-0.359-0.245c-3.357-2.44-7.548-3.129-11.077-5.218c-0.681-0.404-1.595-0.396-2.378-0.645
			c-1.106-0.355-2.183-0.787-3.285-1.154c-2.236-0.747-4.451-1.571-6.724-2.175c-1.775-0.469-3.651-0.542-5.438-0.987
			c-4.705-1.171-9.482-1.575-14.296-1.359c-4.737,0.212-9.282,1.2-12.558,5.006c-1.236,1.436-1.987,3.28-3.064,4.868
			c-1.256,1.844-1.62,3.908-1.812,6.055C3.51,36.304,3.245,40.62,2.653,44.888c-0.404,2.917-1.64,5.741-1.86,8.654
			c-0.339,4.48-0.094,9.004-0.151,13.509C0.503,77.867,0.336,88.687,0.181,99.503C0.116,103.966-0.015,108.434,0.001,112.897z" fill="#FFFFFF"/>
	</g>
</g>
<g>
</g>
<g>
</g>
<g>
</g>
<g>
</g>
<g>
</g>
<g>
</g>
<g>
</g>
<g>
</g>
<g>
</g>
<g>
</g>
<g>
</g>
<g>
</g>
<g>
</g>
<g>
</g>
<g>
</g>
</svg>
