<?xml version="1.0" encoding="iso-8859-1"?>
<!-- Generator: Adobe Illustrator 19.0.0, SVG Export Plug-In . SVG Version: 6.00 Build 0)  -->
<svg version="1.1" id="Capa_1" xmlns="http://www.w3.org/2000/svg" xmlns:xlink="http://www.w3.org/1999/xlink" x="0px" y="0px"
	 viewBox="0 0 512 512" style="enable-background:new 0 0 512 512;" xml:space="preserve">
<g transform="matrix(1.25 0 0 -1.25 0 45)">
	<g>
		<path style="fill:#FFFFFF;" d="M102.4-60.711c0,12.572-10.195,22.756-22.756,22.756S56.889-48.139,56.889-60.711v-273.067
			c0-12.561,10.195-22.756,22.756-22.756s22.756,10.195,22.756,22.756C102.4-333.778,102.4-60.711,102.4-60.711z"/>
		<path style="fill:#FFFFFF;" d="M352.711-60.711c0,12.572-10.183,22.756-22.756,22.756c-12.561,0-22.756-10.183-22.756-22.756
			v-273.067c0-12.561,10.195-22.756,22.756-22.756c12.572,0,22.756,10.195,22.756,22.756V-60.711z"/>
		<path style="fill:#FFFFFF;" d="M409.6-140.356c0-12.561-10.183-22.756-22.756-22.756H22.756C10.195-163.111,0-152.916,0-140.356
			C0-127.783,10.195-117.6,22.756-117.6h364.089C399.417-117.6,409.6-127.783,409.6-140.356"/>
		<path style="fill:#FFFFFF;" d="M398.222-37.956c0-12.561-8.886-19.558-22.756-22.756c0,0-34.133-11.378-170.667-11.378
			S34.133-60.711,34.133-60.711c-14.405,3.027-22.756,10.195-22.756,22.756c0,12.572,10.195,22.756,22.756,22.756h341.333
			C388.039-15.2,398.222-25.383,398.222-37.956"/>
	</g>
	<path style="fill:#FFFFFF;" d="M408.533-3.822c0-12.561-7.498-20.446-21.709-22.756c0,0-45.511-11.378-182.033-11.378
		c-136.511,0-182.01,11.378-182.01,11.378C9.447-24.439,1.243-16.497,1.243-3.936c0,12.572-2.401,34.247,10.161,34.247
		c0,0,45.499-22.756,193.388-22.756c147.9,0,193.4,22.756,193.4,22.756C410.752,30.311,408.533,8.75,408.533-3.822"/>
	<path style="fill:#FFFFFF;" d="M227.556-128.978c0-12.561-10.183-22.756-22.756-22.756c-12.561,0-22.756,10.195-22.756,22.756
		v68.267c0,12.572,10.195,22.756,22.756,22.756c12.572,0,22.756-10.183,22.756-22.756V-128.978z"/>
	<g>
		<path style="fill:#FFFFFF;" d="M102.4-322.4H56.889c-12.561,0-22.756-10.195-22.756-22.756c0-12.561,10.195-22.756,22.756-22.756
			H102.4c12.572,0,22.756,10.195,22.756,22.756C125.156-332.595,114.972-322.4,102.4-322.4z"/>
		<path style="fill:#FFFFFF;" d="M352.711-322.4H307.2c-12.561,0-22.756-10.195-22.756-22.756c0-12.561,10.195-22.756,22.756-22.756
			h45.511c12.572,0,22.756,10.195,22.756,22.756C375.467-332.595,365.284-322.4,352.711-322.4z"/>
	</g>
</g>
<g>
</g>
<g>
</g>
<g>
</g>
<g>
</g>
<g>
</g>
<g>
</g>
<g>
</g>
<g>
</g>
<g>
</g>
<g>
</g>
<g>
</g>
<g>
</g>
<g>
</g>
<g>
</g>
<g>
</g>
</svg>
