<?xml version="1.0" encoding="iso-8859-1"?>
<!-- Generator: Adobe Illustrator 19.0.0, SVG Export Plug-In . SVG Version: 6.00 Build 0)  -->
<svg version="1.1" id="Capa_1" xmlns="http://www.w3.org/2000/svg" xmlns:xlink="http://www.w3.org/1999/xlink" x="0px" y="0px"
	 viewBox="0 0 512.001 512.001" style="enable-background:new 0 0 512.001 512.001;" xml:space="preserve">
<path style="fill:#FFFFFF;" d="M290.913,456.494C242.246,384.232,275.052,304.1,275.052,304.1l-33.43,4.757
	c0,0-27.475,18.88-27.475,88.838c0,69.957,0,79.082,0,79.082h80.8L290.913,456.494z"/>
<path style="fill:#FFFFFF;" d="M154.717,445.784c34.581-46.149,45.52-96.419,45.52-96.419h11.716v96.659L154.717,445.784z"/>
<g>
	<path style="fill:#FFFFFF;" d="M213.31,236.755c-3.775-1.99-8.448-0.543-10.439,3.231c-1.991,3.775-0.544,8.449,3.231,10.439
		c23.43,12.355,24.585,33.413,24.626,34.41c0.129,4.178,3.556,7.488,7.72,7.488c0.064,0,0.129-0.001,0.194-0.002
		c4.266-0.106,7.639-3.649,7.534-7.915C246.145,283.153,245.055,253.496,213.31,236.755z"/>
	<path style="fill:#FFFFFF;" d="M163.97,277.384c-0.076-0.525-0.205-1.051-0.396-1.569c-5.904-16.047-0.525-28.411-0.242-29.043
		c1.786-3.85,0.131-8.425-3.714-10.239c-3.859-1.818-8.464-0.168-10.285,3.692c-0.231,0.49-3.845,8.353-3.936,20.064
		c-1.665-1.58-3.295-3.149-4.846-4.699c-0.015-0.015-0.031-0.03-0.046-0.045c-0.002-0.002-0.005-0.005-0.007-0.007
		c-14.91-14.911-21.257-33.568-21.166-44.547c0.087-4.248-3.276-7.772-7.529-7.88c-4.277-0.113-7.812,3.262-7.921,7.528
		c-0.02,0.777-0.191,12.984,6.764,28.581l-52.701-28.139c-3.763-2.011-8.446-0.589-10.455,3.176
		c-2.01,3.764-0.588,8.446,3.176,10.455l79.757,42.588c4.901,4.851,10.212,9.702,15.833,14.821
		c21.275,19.379,47.449,41.342,52.566,68.667c0.784,4.187,4.811,6.956,9.017,6.172c4.194-0.786,6.958-4.823,6.173-9.018
		C208.576,318.913,184.979,296.783,163.97,277.384z"/>
</g>
<path style="fill:#FFFFFF;" d="M429.049,165.05c-4.267,0-7.727,3.46-7.727,7.727c0,47.222-52.74,72.021-58.235,74.472
	c-0.589,0.153-1.525,0.406-2.732,0.76c2.389-19.757,10.259-34.403,10.4-34.662c2.053-3.734,0.696-8.428-3.036-10.488
	c-3.736-2.062-8.436-0.706-10.499,3.03c-0.499,0.903-11.53,21.185-12.867,47.919c-11.33,4.854-25.614,12.616-37.218,24.219
	c-18.981,18.982-58.061,22.464-58.453,22.496c-4.25,0.353-7.411,4.084-7.061,8.334c0.35,4.257,4.092,7.421,8.335,7.067
	c1.755-0.145,41.589-3.649,65.156-24.222c4.888,0.694,13.414,1.665,22.921,1.665c14.72,0,31.744-2.332,41.05-11.639
	c3.018-3.017,3.018-7.909,0-10.927c-3.017-3.016-7.91-3.017-10.927,0.001c-4.651,4.65-15.476,7.126-30.507,7.072
	c-1.891-0.011-3.745-0.064-5.534-0.146c17.104-11.105,35.058-15.574,35.282-15.629c0.393-0.095,0.779-0.22,1.153-0.375
	c0.694-0.288,17.18-7.21,33.78-21.352c22.534-19.199,34.445-42.573,34.445-67.594C436.775,168.509,433.316,165.05,429.049,165.05z"
	/>
<path style="fill:#FFFFFF;" d="M457.694,98.497c-1.046,0-2.083,0.019-3.115,0.05c-12.536-22.481-52.62-30.283-81.572-28.5
	c-7.745-0.078-15.162-1.379-21.651-5.715c-15.558-12.645-43.32-15.31-63.909-11.38c-1.077,0.063-2.332,0.316-3.804,0.812
	c-1.692,0.402-3.341,0.847-4.936,1.336c-13.263,2.715-20.189-3.143-20.293-3.186l0.013,0.021
	C191.65,13.462,82.356,46.506,92.224,99.458c0,7.964-4.452,10.769-7.768,11.754c-41.441,5.623-67.615,29.045-52.992,51.851
	C12.887,167.631,0,177.589,0,189.146c0,22.648,48.337,37.05,85.007,23.697l0.004,0.012c2.19-0.606,11.695-6.704,26.579-2.023
	c2.715,0.854,18.932,8.255,46.073,8.255c27.523,0,51.602-7.76,64.913-19.366l0,0c0.629-0.549,1.233-1.106,1.813-1.671
	c3.614-3.026,12.417-8.967,24.437-7.439c0.046,0.006,0.086,0.009,0.132,0.014c6.581,1.373,13.623,2.138,20.967,2.138
	c22.864,0,42.952-7.218,54.543-18.122c2.558-2.166,10.323-7.474,21.733-3.859c0.044,0.014,0.082,0.021,0.126,0.035
	c39.837,15.887,94.29,7.206,114.144-14.856c28.702-0.765,51.53-13.327,51.53-28.713C512,111.369,487.687,98.497,457.694,98.497z"/>
<path style="fill:#FFFFFF;" d="M228.373,438.451v-72.066c0-34.297,44.873-87.854,62.159-105.592
	c0.585-0.599,1.119-1.245,1.596-1.933l59.711-86.047c-1.893-0.626-3.736-1.289-5.513-1.998c-0.043-0.013-0.082-0.021-0.126-0.035
	c-11.41-3.615-19.176,1.692-21.733,3.859c-4.819,4.534-11.124,8.416-18.469,11.422l-37.92,54.645
	c-28.501,29.865-69.813,83.906-69.813,125.678v71.181"/>
<path style="fill:#FFFFFF;" d="M213.279,369.476c0-23.153,12.134-51.71,36.066-84.879c15.043-20.848,29.936-36.806,33.747-40.799
	l52.642-74.049c-5.686,0.731-9.595,3.475-11.267,4.891c-4.819,4.534-11.124,8.416-18.469,11.422l-37.92,54.645
	c-28.428,29.79-69.813,83.825-69.813,125.678v71.181l15.015,0.441L213.279,369.476L213.279,369.476z"/>
<path style="fill:#FFFFFF;" d="M155.063,443.475c13.436,5.983,23.387,18.376,25.96,33.302h71.836
	C244.918,430.7,189.091,412.21,155.063,443.475z"/>
<path style="fill:#FFFFFF;" d="M219.016,433.154c-20.677-9.323-45.987-6.186-63.953,10.321c13.436,5.983,23.388,18.376,25.96,33.302
	h4.149C188.535,457.268,201.497,441.054,219.016,433.154z"/>
<path style="fill:#FFFFFF;" d="M338.572,476.777c16.259,0,8.979-11.96,8.978-11.965c-17.152-30.175-62.891-22.313-68.8,11.965
	h59.819C338.57,476.777,338.571,476.777,338.572,476.777z"/>
<path style="fill:#FFFFFF;" d="M329.441,448.833c-21.897-9.055-46.662,4.569-50.691,27.944h28.313
	C309.249,464.097,317.87,453.623,329.441,448.833z"/>
<path style="fill:#FFFFFF;" d="M97.239,463.49c0,0-6.464,13.287,8.289,13.287c0.001,0,0.002,0,0.003,0h75.492
	c-3.638-21.105-22.018-37.164-44.162-37.164C119.674,439.613,104.759,449.291,97.239,463.49L97.239,463.49z"/>
<path style="fill:#FFFFFF;" d="M122.995,463.49L122.995,463.49c5.561-10.501,15.173-18.516,26.752-21.985
	c-4.082-1.224-8.405-1.892-12.886-1.892c-17.187,0-32.102,9.678-39.622,23.877l0,0c0,0-6.464,13.287,8.289,13.287
	c0.001,0,0.002,0,0.003,0h25.753C116.531,476.777,122.995,463.49,122.995,463.49z"/>
<path style="fill:#FFFFFF;" d="M119.036,53.137c-17.023,10.4-30.466,26.708-26.812,46.322c0,7.964-4.452,10.769-7.768,11.754
	c-41.441,5.623-67.615,29.045-52.992,51.851C12.888,167.631,0,177.589,0,189.146c0,22.648,48.337,37.05,85.007,23.697l0.004,0.012
	c2.19-0.606,11.695-6.705,26.579-2.023c2.715,0.854,18.932,8.255,46.073,8.255c27.523,0,51.602-7.76,64.913-19.366l0,0
	c1.131-0.986,3.704-3.783,9.178-6.353C229.217,193.543,97.601,125.869,119.036,53.137z"/>
<g>
</g>
<g>
</g>
<g>
</g>
<g>
</g>
<g>
</g>
<g>
</g>
<g>
</g>
<g>
</g>
<g>
</g>
<g>
</g>
<g>
</g>
<g>
</g>
<g>
</g>
<g>
</g>
<g>
</g>
</svg>
