<?xml version="1.0" encoding="iso-8859-1"?>
<!-- Generator: Adobe Illustrator 16.0.0, SVG Export Plug-In . SVG Version: 6.00 Build 0)  -->
<!DOCTYPE svg PUBLIC "-//W3C//DTD SVG 1.1//EN" "http://www.w3.org/Graphics/SVG/1.1/DTD/svg11.dtd">
<svg version="1.1" id="Capa_1" xmlns="http://www.w3.org/2000/svg" xmlns:xlink="http://www.w3.org/1999/xlink" x="0px" y="0px"
	 width="478.871px" height="478.871px" viewBox="0 0 478.871 478.871" style="enable-background:new 0 0 478.871 478.871;"
	 xml:space="preserve">
<g>
	<g id="_x38__16_">
		<g>
			<path d="M409.729,71.162C365.186,26.091,305.803,0.829,242.524,0.025c-0.075-0.001-0.15-0.001-0.228-0.001
				c-0.195,0-0.387,0.022-0.58,0.029c-0.761-0.014-1.52-0.029-2.282-0.029c-1.224,0-2.445,0.017-3.661,0.051
				C172.637,1.024,113.41,26.334,68.995,71.354C24.503,116.45,0,176.151,0,239.458c0,63.385,24.555,123.139,69.142,168.252
				c44.544,45.07,103.926,70.334,167.206,71.135c0.076,0.002,0.15,0.002,0.226,0.002c0.196,0,0.386-0.021,0.581-0.029
				c0.759,0.014,1.518,0.029,2.28,0.029c1.226,0,2.448-0.016,3.667-0.049c63.137-0.949,122.359-26.262,166.773-71.281
				c44.492-45.096,68.996-104.797,68.996-168.105C478.871,176.026,454.316,116.274,409.729,71.162z M239.435,387.37
				c-20.418,0-36.989-16.572-36.989-36.99s16.571-36.99,36.989-36.99c20.418,0,36.989,16.572,36.989,36.99
				S259.854,387.37,239.435,387.37z M239.435,221.912c-70.837,0-128.467,57.63-128.467,128.468c0,0.008,0,0.016,0,0.022
				s0,0.015,0,0.022c0,0.102,0.004,0.203,0.004,0.305c0.003,1.068,0.018,2.134,0.046,3.197c0.015,0.552,0.042,1.101,0.063,1.652
				c0.024,0.602,0.046,1.205,0.079,1.805c0.036,0.686,0.083,1.369,0.13,2.053c0.03,0.434,0.06,0.867,0.095,1.3
				c0.063,0.802,0.135,1.601,0.213,2.399c0.025,0.254,0.052,0.51,0.079,0.765c1.625,15.617,6.051,30.647,13.055,44.474
				c-54.074-36.933-89.734-99.062-89.734-168.916c0-111.09,90.35-202.779,201.406-204.39c0.085-0.001,0.17-0.003,0.255-0.005
				c0.921-0.027,1.847-0.04,2.774-0.04c7.983,0,15.735,1.008,23.137,2.9c38.785,10.049,68.121,44.741,70.213,85.821
				c0.078,1.564,0.117,3.139,0.119,4.723C332.891,179.995,290.967,221.912,239.435,221.912z"/>
			<path d="M239.435,91.502c-20.418,0-36.989,16.571-36.989,36.988c0,20.418,16.571,36.99,36.989,36.99
				c20.418,0,36.989-16.572,36.989-36.99C276.424,108.073,259.854,91.502,239.435,91.502z"/>
		</g>
	</g>
</g>
<g>
</g>
<g>
</g>
<g>
</g>
<g>
</g>
<g>
</g>
<g>
</g>
<g>
</g>
<g>
</g>
<g>
</g>
<g>
</g>
<g>
</g>
<g>
</g>
<g>
</g>
<g>
</g>
<g>
</g>
</svg>
